<svg width="19" height="19" viewBox="0 0 19 19" fill="none" xmlns="http://www.w3.org/2000/svg">
<path d="M1.58331 3.95829C1.58331 3.74833 1.66672 3.54697 1.81519 3.3985C1.96365 3.25003 2.16502 3.16663 2.37498 3.16663H16.625C16.8349 3.16663 17.0363 3.25003 17.1848 3.3985C17.3332 3.54697 17.4166 3.74833 17.4166 3.95829V15.0416C17.4166 15.2516 17.3332 15.453 17.1848 15.6014C17.0363 15.7499 16.8349 15.8333 16.625 15.8333H2.37498C2.16502 15.8333 1.96365 15.7499 1.81519 15.6014C1.66672 15.453 1.58331 15.2516 1.58331 15.0416V3.95829Z" stroke="white" stroke-linejoin="round"/>
<path d="M14.25 3.16663V15.8333M4.74998 3.16663V15.8333M15.0416 7.12496H17.4166M15.0416 11.875H17.4166M1.58331 7.12496H3.95831M1.58331 6.33329V7.91663M3.56248 3.16663H5.93748M3.56248 15.8333H5.93748M13.0625 3.16663H15.4375M13.0625 15.8333H15.4375M1.58331 11.875H3.95831M1.58331 11.0833V12.6666M17.4166 11.0833V12.6666M17.4166 6.33329V7.91663" stroke="white" stroke-linecap="round" stroke-linejoin="round"/>
<path d="M8.3125 7.52075L11.4792 9.49992L8.3125 11.4791V7.52075Z" stroke="white" stroke-linejoin="round"/>
</svg>
